REM DIRINDEX 1\3,1\4,1\5,1\6,1\2\7,1\2\8,1\2\9,1\10
REM DIRNAME folder01,folder02,folder03,folder04,folder05,folder06,folder07,folder08,folder09,folder10
TITLE ""
FILE "2-59 Level 6-1056-1066.mp3" MP3
  TRACK 01 AUDIO
    TITLE "0:"
    INDEX 01 00:00:00
  TRACK 02 AUDIO
    TITLE "10:cjc056_3580"
    INDEX 01 00:00:03
  TRACK 03 AUDIO
    TITLE "0:"
    INDEX 01 00:03:29
  TRACK 04 AUDIO
    TITLE "7:cjc056_3581"
    INDEX 01 00:04:03
  TRACK 05 AUDIO
    TITLE "0:"
    INDEX 01 00:05:26
  TRACK 06 AUDIO
    TITLE "8:cjc056_3582"
    INDEX 01 00:05:42
  TRACK 07 AUDIO
    TITLE "0:"
    INDEX 01 00:07:56
  TRACK 08 AUDIO
    TITLE "9:cjc056_3583"
    INDEX 01 00:07:68
  TRACK 09 AUDIO
    TITLE "0:"
    INDEX 01 00:11:46
  TRACK 10 AUDIO
    TITLE "7:cjc056_3584"
    INDEX 01 00:12:24
  TRACK 11 AUDIO
    TITLE "0:"
    INDEX 01 00:13:45
  TRACK 12 AUDIO
    TITLE "8:cjc056_3585"
    INDEX 01 00:13:57
  TRACK 13 AUDIO
    TITLE "0:"
    INDEX 01 00:16:02
  TRACK 14 AUDIO
    TITLE "9:cjc056_3586"
    INDEX 01 00:16:14
  TRACK 15 AUDIO
    TITLE "0:"
    INDEX 01 00:18:54
  TRACK 16 AUDIO
    TITLE "7:cjc056_3587"
    INDEX 01 00:19:28
  TRACK 17 AUDIO
    TITLE "0:"
    INDEX 01 00:20:59
  TRACK 18 AUDIO
    TITLE "8:cjc056_3588"
    INDEX 01 00:20:69
  TRACK 19 AUDIO
    TITLE "0:"
    INDEX 01 00:23:24
  TRACK 20 AUDIO
    TITLE "9:cjc056_3589"
    INDEX 01 00:23:40
  TRACK 21 AUDIO
    TITLE "0:"
    INDEX 01 00:26:46
  TRACK 22 AUDIO
    TITLE "7:cjc056_3590"
    INDEX 01 00:27:16
  TRACK 23 AUDIO
    TITLE "0:"
    INDEX 01 00:28:51
  TRACK 24 AUDIO
    TITLE "8:cjc056_3591"
    INDEX 01 00:28:60
  TRACK 25 AUDIO
    TITLE "0:"
    INDEX 01 00:31:00
  TRACK 26 AUDIO
    TITLE "9:cjc056_3592"
    INDEX 01 00:31:14
  TRACK 27 AUDIO
    TITLE "0:"
    INDEX 01 00:34:42
  TRACK 28 AUDIO
    TITLE "7:cjc056_3593"
    INDEX 01 00:35:15
  TRACK 29 AUDIO
    TITLE "0:"
    INDEX 01 00:36:40
  TRACK 30 AUDIO
    TITLE "8:cjc056_3594"
    INDEX 01 00:36:52
  TRACK 31 AUDIO
    TITLE "0:"
    INDEX 01 00:39:27
  TRACK 32 AUDIO
    TITLE "9:cjc056_3595"
    INDEX 01 00:39:41
  TRACK 33 AUDIO
    TITLE "0:"
    INDEX 01 00:41:59
  TRACK 34 AUDIO
    TITLE "7:cjc056_3596"
    INDEX 01 00:42:33
  TRACK 35 AUDIO
    TITLE "0:"
    INDEX 01 00:43:66
  TRACK 36 AUDIO
    TITLE "8:cjc056_3597"
    INDEX 01 00:44:01
  TRACK 37 AUDIO
    TITLE "0:"
    INDEX 01 00:47:27
  TRACK 38 AUDIO
    TITLE "9:cjc056_3598"
    INDEX 01 00:47:38
  TRACK 39 AUDIO
    TITLE "0:"
    INDEX 01 00:50:58
  TRACK 40 AUDIO
    TITLE "7:cjc056_3599"
    INDEX 01 00:51:36
  TRACK 41 AUDIO
    TITLE "0:"
    INDEX 01 00:53:27
  TRACK 42 AUDIO
    TITLE "8:cjc056_3600"
    INDEX 01 00:53:37
  TRACK 43 AUDIO
    TITLE "0:"
    INDEX 01 00:56:08
  TRACK 44 AUDIO
    TITLE "9:cjc056_3601"
    INDEX 01 00:56:18
  TRACK 45 AUDIO
    TITLE "0:"
    INDEX 01 00:59:16
  TRACK 46 AUDIO
    TITLE "7:cjc056_3602"
    INDEX 01 00:59:67
  TRACK 47 AUDIO
    TITLE "0:"
    INDEX 01 01:01:07
  TRACK 48 AUDIO
    TITLE "8:cjc056_3603"
    INDEX 01 01:01:21
  TRACK 49 AUDIO
    TITLE "0:"
    INDEX 01 01:03:45
  TRACK 50 AUDIO
    TITLE "9:cjc056_3604"
    INDEX 01 01:03:59
  TRACK 51 AUDIO
    TITLE "0:"
    INDEX 01 01:07:23
  TRACK 52 AUDIO
    TITLE "7:cjc056_3605"
    INDEX 01 01:07:66
  TRACK 53 AUDIO
    TITLE "0:"
    INDEX 01 01:09:05
  TRACK 54 AUDIO
    TITLE "8:cjc056_3606"
    INDEX 01 01:09:18
  TRACK 55 AUDIO
    TITLE "0:"
    INDEX 01 01:11:33
  TRACK 56 AUDIO
    TITLE "9:cjc056_3607"
    INDEX 01 01:11:47
  TRACK 57 AUDIO
    TITLE "0:"
    INDEX 01 01:14:29
  TRACK 58 AUDIO
    TITLE "7:cjc056_3608"
    INDEX 01 01:14:70
  TRACK 59 AUDIO
    TITLE "0:"
    INDEX 01 01:16:24
  TRACK 60 AUDIO
    TITLE "8:cjc056_3609"
    INDEX 01 01:16:36
  TRACK 61 AUDIO
    TITLE "0:"
    INDEX 01 01:18:56
  TRACK 62 AUDIO
    TITLE "9:cjc056_3610"
    INDEX 01 01:18:70
  TRACK 63 AUDIO
    TITLE "0:"
    INDEX 01 01:22:11
  TRACK 64 AUDIO
    TITLE "7:cjc056_3611"
    INDEX 01 01:22:62
  TRACK 65 AUDIO
    TITLE "0:"
    INDEX 01 01:24:24
  TRACK 66 AUDIO
    TITLE "8:cjc056_3612"
    INDEX 01 01:24:39
  TRACK 67 AUDIO
    TITLE "0:"
    INDEX 01 01:26:70
  TRACK 68 AUDIO
    TITLE "9:cjc056_3613"
    INDEX 01 01:27:08
  TRACK 69 AUDIO
    TITLE "0:"
    INDEX 01 01:29:58
